_________________________  Visit us at _________________________
  
http://p2pdl.com  ____________________________  http://p2pdl.com


The Child 2012 BRRip 720p x264 AAC - PRiSTiNE


Genre: Thriller 
Plot: Simon Sachs, a terminally ill ten year old boy, claims to have been a serial killer in his
previous life and apparently he can prove it. He leads a lawyer, Robert Stern to the locations of
the bodies, who were killed long before Simon was born. Stern takes on the most compelling and
mysterious case of his life.
Director: Zsolt Bács
Stars: Eric Roberts, Ben Becker, Christian Traeumer.
Rated: N/a


Info: 
http://www.imdb.com/title/tt1921111/

Trailer:


Format                         : MPEG-4
File size                      : 671 MiB
Duration                       : 1h 58mn
Overall bit rate               : 790 Kbps
Video Format                   : AVC
Video Bit rate                 : 703 Kbps
Width                          : 1 280 pixels
Height                         : 544 pixels
Display aspect ratio           : 2.35:1
Frame rate mode                : Constant
Frame rate                     : 24.000 fps
Stream size                    : 597 MiB (89%)
Writing library                : x264 core 129 r2245
Audio Format                   : AAC
Audio Bit rate                 : 83.7 Kbps
Channel(s)                     : 2 channels
Channel positions              : Front: L R
Sampling rate                  : 48.0 KHz
Stream size                    : 71.1 MiB (11%)
Language                       : English
Subtitle                       : N/a
Source                         : 720p.BluRay.x264.DTS-PTpOWeR(Thanks)

Screenshots:
 
http://cdn.piczend.com/images/wRqBsqIk/1363361947_1.jpg 
http://cdn.piczend.com/images/LMxgXeCe/1363361947_2.jpg 
http://cdn.piczend.com/images/CYdL3y5V/1363361947_3.jpg 
http://cdn.piczend.com/images/hfHbxSHK/1363361947_4.jpg 
http://cdn.piczend.com/images/XAyyNmcQ/1363361947_5.jpg 
http://cdn.piczend.com/images/ajghXQFD/1363361948_6.jpg



----------------------------------------------------------------------------------------------------


Encoded using revolutionary 10bit encoding, which enables us to provide you more crispier 
and sharper images at small sizes, just make sure you follow our instructions without a fault.
Recommend to you to use latest version of VLC player. Install K-Lite Codec Pack or shark007 codecs
in case of any kind of problem in playback (For non-VLC Media Player users). Alternatively, install
Core AVC codecs, the fastest decoder that there is coupled with Community Center Codec Pack and play
on Windows Media Player Classic.

Encoder Notes: Encoder Notes: Looking For Early Access To Anything You Can Provide DVDScr, R5, DVDR, BluRay, Direct
Audio, Music Releases and Seedboxes. We require dedicated servers, so as to do more and fast releases of movies.
If You Got anything to offer contact us at "prg@hush.com".